<svg width="182" height="119" viewBox="0 0 182 119" fill="none" xmlns="http://www.w3.org/2000/svg">
<g filter="url(#filter0_ddddd_448_1840)">
<path d="M47.7078 17.2212C70.5576 20.9018 76.4838 23.2613 88.996 32C82.4199 34.4485 75.4501 34.8171 67.996 33.5C70.3768 36.6861 73.3838 38.462 77.5642 40.6342C69.6106 44.225 49.996 40.6342 49.996 40.6342C49.996 40.6342 31.9014 37.9198 29.2402 49.035C26.579 60.1502 28.2419 65.7738 41.4841 73.4598C38.7535 67.3174 37.7256 63.9749 38.9415 58.627C47.2532 59.2354 51.4556 61.5951 58.4785 67.8871C54.7077 54.7087 42.5149 48.5862 31.5587 53.0351C30.1967 53.5881 28.2454 54.7789 28.2454 54.7789C25.9386 54.2225 24.6309 53.7576 22.2033 51.9246C22.2033 51.9246 18.3894 48.8805 16.0697 43.968C11.5048 34.301 17.1389 25.9264 28.295 20.4577C28.961 15.6469 26.5163 10.6282 22.0488 5.13468C33.0243 7.76913 38.5146 10.6962 47.7078 17.2212Z" stroke="white" stroke-width="3" stroke-linecap="square"/>
</g>
<g filter="url(#filter1_ddddd_448_1840)">
<path d="M78.3811 45.5158L77.5531 48.6838C77.1211 48.5158 76.6171 48.3718 76.0411 48.2518C75.4651 48.1078 74.8651 47.9878 74.2411 47.8918C73.6171 47.7958 72.9931 47.7238 72.3691 47.6758C71.7451 47.6278 71.1571 47.6038 70.6051 47.6038C68.9011 47.6038 67.5451 47.9038 66.5371 48.5038C65.5291 49.1038 65.0251 49.9558 65.0251 51.0598C65.0251 51.6118 65.1451 52.1038 65.3851 52.5358C65.6491 52.9438 66.0451 53.3278 66.5731 53.6878C67.1251 54.0478 67.8451 54.4078 68.7331 54.7678C69.6211 55.1038 70.6891 55.4638 71.9371 55.8478C73.2811 56.2558 74.4331 56.6998 75.3931 57.1798C76.3531 57.6598 77.1451 58.1878 77.7691 58.7638C78.3931 59.3158 78.8491 59.9638 79.1371 60.7078C79.4251 61.4278 79.5691 62.2678 79.5691 63.2278C79.5691 64.7398 79.1731 66.0238 78.3811 67.0798C77.5891 68.1118 76.4371 68.9038 74.9251 69.4558C73.4131 70.0078 71.5531 70.2838 69.3451 70.2838C68.6251 70.2838 67.8571 70.2478 67.0411 70.1758C66.2251 70.1038 65.3971 70.0078 64.5571 69.8878C63.7411 69.7438 62.9491 69.5758 62.1811 69.3838C61.4371 69.1918 60.7651 68.9878 60.1651 68.7718L61.0291 65.6398C61.6051 65.8558 62.2531 66.0478 62.9731 66.2158C63.6931 66.3838 64.4371 66.5398 65.2051 66.6838C65.9731 66.8038 66.7291 66.8998 67.4731 66.9718C68.2171 67.0438 68.9131 67.0798 69.5611 67.0798C70.8571 67.0798 71.9371 66.9478 72.8011 66.6838C73.6651 66.3958 74.3251 65.9878 74.7811 65.4598C75.2371 64.9318 75.4651 64.2958 75.4651 63.5518C75.4651 62.9998 75.3091 62.5078 74.9971 62.0758C74.6851 61.6438 74.2171 61.2598 73.5931 60.9238C72.9931 60.5638 72.2131 60.2038 71.2531 59.8438C70.2931 59.4838 69.1651 59.0878 67.8691 58.6558C66.6451 58.2478 65.5891 57.8038 64.7011 57.3238C63.8371 56.8438 63.1171 56.3158 62.5411 55.7398C61.9891 55.1638 61.5691 54.5158 61.2811 53.7958C61.0171 53.0758 60.8851 52.2478 60.8851 51.3118C60.8851 50.3038 61.0891 49.3798 61.4971 48.5398C61.9051 47.6758 62.5051 46.9318 63.2971 46.3078C64.1131 45.6838 65.1331 45.2038 66.3571 44.8678C67.5811 44.5318 68.9971 44.3638 70.6051 44.3638C71.5411 44.3638 72.4891 44.4238 73.4491 44.5438C74.4091 44.6398 75.3211 44.7718 76.1851 44.9398C77.0731 45.1078 77.8051 45.2998 78.3811 45.5158ZM82.986 69.9238V44.7238H86.982V56.9278H98.97V44.7238H102.966V69.9238H98.97V60.5278H86.982V69.9238H82.986ZM105.721 69.9238L114.145 44.5078H118.825L127.321 69.9238H122.893L120.985 63.9838H111.805L109.897 69.9238H105.721ZM112.597 60.6358H120.229L116.413 48.0718L112.597 60.6358ZM150.112 70.2838C149.464 70.2838 148.816 70.1638 148.168 69.9238C147.52 69.7078 146.86 69.3598 146.188 68.8798C145.54 68.3758 144.868 67.7518 144.172 67.0078C143.476 66.2398 142.732 65.3278 141.94 64.2718C141.172 63.1918 140.356 61.9558 139.492 60.5638C139.276 60.5878 138.988 60.5998 138.628 60.5998C138.268 60.5998 137.98 60.5998 137.764 60.5998C137.212 60.5998 136.612 60.5998 135.964 60.5998C135.34 60.5998 134.728 60.5878 134.128 60.5638V69.9238H130.06V44.6878C131.236 44.6158 132.316 44.5558 133.3 44.5078C134.284 44.4598 135.196 44.4238 136.036 44.3998C136.9 44.3758 137.74 44.3638 138.556 44.3638C140.452 44.3638 142.06 44.4958 143.38 44.7598C144.724 45.0238 145.816 45.4558 146.656 46.0558C147.496 46.6558 148.108 47.4358 148.492 48.3958C148.9 49.3558 149.104 50.5198 149.104 51.8878C149.104 53.3518 148.876 54.5998 148.42 55.6318C147.988 56.6398 147.352 57.4678 146.512 58.1158C145.672 58.7398 144.664 59.2318 143.488 59.5918C144.28 60.7678 145.012 61.7878 145.684 62.6518C146.38 63.4918 147.016 64.1878 147.592 64.7398C148.168 65.2678 148.696 65.6758 149.176 65.9638C149.68 66.2278 150.148 66.3598 150.58 66.3598C150.628 66.3598 150.712 66.3598 150.832 66.3598C150.952 66.3358 151.048 66.3118 151.12 66.2878L151.156 70.1758C151.036 70.1998 150.892 70.2238 150.724 70.2478C150.556 70.2718 150.352 70.2838 150.112 70.2838ZM138.52 57.2518C139.6 57.2518 140.536 57.1678 141.328 56.9998C142.144 56.8318 142.816 56.5678 143.344 56.2078C143.872 55.8238 144.256 55.3318 144.496 54.7318C144.76 54.1078 144.892 53.3398 144.892 52.4278C144.892 51.2518 144.7 50.3158 144.316 49.6198C143.956 48.8998 143.32 48.3838 142.408 48.0718C141.496 47.7598 140.248 47.6038 138.664 47.6038C138.208 47.6038 137.812 47.6038 137.476 47.6038C137.14 47.6038 136.804 47.6158 136.468 47.6398C136.156 47.6638 135.808 47.6878 135.424 47.7118C135.064 47.7118 134.632 47.7358 134.128 47.7838V57.1438C134.56 57.1678 134.956 57.1918 135.316 57.2158C135.676 57.2158 136.036 57.2278 136.396 57.2518C136.756 57.2518 137.104 57.2518 137.44 57.2518C137.8 57.2518 138.16 57.2518 138.52 57.2518ZM159.078 69.9238V60.1318L150.258 44.8318L154.686 44.6158L161.094 57.4678L167.322 44.6158L171.714 44.8318L163.074 60.1318V69.9238H159.078Z" fill="white"/>
</g>
<path d="M59.8559 26.2573C59.3613 26.1575 58.8346 26.3254 58.5894 26.0017C58.3232 25.6503 58.4954 25.1555 59.0152 24.8954C59.7158 24.5448 60.721 25.2902 60.3551 25.8471C60.23 26.0375 60.1003 26.1441 59.8559 26.2573ZM59.8559 26.2573C60.347 26.0705 59.5498 25.1961 59.1661 25.5007C59.0284 25.61 58.9595 25.702 58.9501 25.8403C58.9274 26.1744 59.8747 26.2398 60.072 25.9177M57.4422 27.4306C57.4422 27.4306 56.4207 25.0285 58.5204 24.5187C60.7752 23.9713 61.0282 26.5365 61.0282 26.5365C59.4218 26.3877 58.735 26.6325 57.4422 27.4306Z" stroke="white"/>
<defs>
<filter id="filter0_ddddd_448_1840" x="0.980103" y="0.640991" width="103.219" height="117.442" filterUnits="userSpaceOnUse" color-interpolation-filters="sRGB">
<feFlood flood-opacity="0" result="BackgroundImageFix"/>
<feColorMatrix in="SourceAlpha" type="matrix" values="0 0 0 0 0 0 0 0 0 0 0 0 0 0 0 0 0 0 127 0" result="hardAlpha"/>
<feOffset/>
<feColorMatrix type="matrix" values="0 0 0 0 0 0 0 0 0 0 0 0 0 0 0 0 0 0 0.1 0"/>
<feBlend mode="normal" in2="BackgroundImageFix" result="effect1_dropShadow_448_1840"/>
<feColorMatrix in="SourceAlpha" type="matrix" values="0 0 0 0 0 0 0 0 0 0 0 0 0 0 0 0 0 0 127 0" result="hardAlpha"/>
<feOffset dy="2"/>
<feGaussianBlur stdDeviation="2"/>
<feColorMatrix type="matrix" values="0 0 0 0 0 0 0 0 0 0 0 0 0 0 0 0 0 0 0.1 0"/>
<feBlend mode="normal" in2="effect1_dropShadow_448_1840" result="effect2_dropShadow_448_1840"/>
<feColorMatrix in="SourceAlpha" type="matrix" values="0 0 0 0 0 0 0 0 0 0 0 0 0 0 0 0 0 0 127 0" result="hardAlpha"/>
<feOffset dy="7"/>
<feGaussianBlur stdDeviation="3.5"/>
<feColorMatrix type="matrix" values="0 0 0 0 0 0 0 0 0 0 0 0 0 0 0 0 0 0 0.09 0"/>
<feBlend mode="normal" in2="effect2_dropShadow_448_1840" result="effect3_dropShadow_448_1840"/>
<feColorMatrix in="SourceAlpha" type="matrix" values="0 0 0 0 0 0 0 0 0 0 0 0 0 0 0 0 0 0 127 0" result="hardAlpha"/>
<feOffset dy="16"/>
<feGaussianBlur stdDeviation="5"/>
<feColorMatrix type="matrix" values="0 0 0 0 0 0 0 0 0 0 0 0 0 0 0 0 0 0 0.05 0"/>
<feBlend mode="normal" in2="effect3_dropShadow_448_1840" result="effect4_dropShadow_448_1840"/>
<feColorMatrix in="SourceAlpha" type="matrix" values="0 0 0 0 0 0 0 0 0 0 0 0 0 0 0 0 0 0 127 0" result="hardAlpha"/>
<feOffset dy="29"/>
<feGaussianBlur stdDeviation="6"/>
<feColorMatrix type="matrix" values="0 0 0 0 0 0 0 0 0 0 0 0 0 0 0 0 0 0 0.01 0"/>
<feBlend mode="normal" in2="effect4_dropShadow_448_1840" result="effect5_dropShadow_448_1840"/>
<feBlend mode="normal" in="SourceGraphic" in2="effect5_dropShadow_448_1840" result="shape"/>
</filter>
<filter id="filter1_ddddd_448_1840" x="59.165" y="41.3638" width="122.549" height="31.92" filterUnits="userSpaceOnUse" color-interpolation-filters="sRGB">
<feFlood flood-opacity="0" result="BackgroundImageFix"/>
<feColorMatrix in="SourceAlpha" type="matrix" values="0 0 0 0 0 0 0 0 0 0 0 0 0 0 0 0 0 0 127 0" result="hardAlpha"/>
<feOffset/>
<feColorMatrix type="matrix" values="0 0 0 0 0 0 0 0 0 0 0 0 0 0 0 0 0 0 0.1 0"/>
<feBlend mode="normal" in2="BackgroundImageFix" result="effect1_dropShadow_448_1840"/>
<feColorMatrix in="SourceAlpha" type="matrix" values="0 0 0 0 0 0 0 0 0 0 0 0 0 0 0 0 0 0 127 0" result="hardAlpha"/>
<feOffset/>
<feGaussianBlur stdDeviation="0.5"/>
<feColorMatrix type="matrix" values="0 0 0 0 0 0 0 0 0 0 0 0 0 0 0 0 0 0 0.1 0"/>
<feBlend mode="normal" in2="effect1_dropShadow_448_1840" result="effect2_dropShadow_448_1840"/>
<feColorMatrix in="SourceAlpha" type="matrix" values="0 0 0 0 0 0 0 0 0 0 0 0 0 0 0 0 0 0 127 0" result="hardAlpha"/>
<feOffset dx="2"/>
<feGaussianBlur stdDeviation="1"/>
<feColorMatrix type="matrix" values="0 0 0 0 0 0 0 0 0 0 0 0 0 0 0 0 0 0 0.09 0"/>
<feBlend mode="normal" in2="effect2_dropShadow_448_1840" result="effect3_dropShadow_448_1840"/>
<feColorMatrix in="SourceAlpha" type="matrix" values="0 0 0 0 0 0 0 0 0 0 0 0 0 0 0 0 0 0 127 0" result="hardAlpha"/>
<feOffset dx="4"/>
<feGaussianBlur stdDeviation="1"/>
<feColorMatrix type="matrix" values="0 0 0 0 0 0 0 0 0 0 0 0 0 0 0 0 0 0 0.05 0"/>
<feBlend mode="normal" in2="effect3_dropShadow_448_1840" result="effect4_dropShadow_448_1840"/>
<feColorMatrix in="SourceAlpha" type="matrix" values="0 0 0 0 0 0 0 0 0 0 0 0 0 0 0 0 0 0 127 0" result="hardAlpha"/>
<feOffset dx="7"/>
<feGaussianBlur stdDeviation="1.5"/>
<feColorMatrix type="matrix" values="0 0 0 0 0 0 0 0 0 0 0 0 0 0 0 0 0 0 0.01 0"/>
<feBlend mode="normal" in2="effect4_dropShadow_448_1840" result="effect5_dropShadow_448_1840"/>
<feBlend mode="normal" in="SourceGraphic" in2="effect5_dropShadow_448_1840" result="shape"/>
</filter>
</defs>
</svg>
