<?xml version="1.0" encoding="utf-8"?><svg viewBox="0 0 541 320" xmlns="http://www.w3.org/2000/svg" xmlns:xlink="http://www.w3.org/1999/xlink"><style>:root>svg{display:none}:root>svg:target{display:block}</style><svg viewBox="0 0 18 10" id="arrowBottom" xmlns="http://www.w3.org/2000/svg"><path d="M1.5 1.25 9 8.75l7.5-7.5"/></svg><svg viewBox="0 0 9 17" id="arrowRight" xmlns="http://www.w3.org/2000/svg"><path d="m1.125 15.25 6.75-6.75-6.75-6.75"/></svg><svg viewBox="0 0 49 48" id="checked" xmlns="http://www.w3.org/2000/svg"><path d="M44.917 22.16V24a19.733 19.733 0 0 1-4.065 11.964 20.424 20.424 0 0 1-10.563 7.204 20.819 20.819 0 0 1-12.865-.419 20.35 20.35 0 0 1-10.052-7.875 19.689 19.689 0 0 1-3.244-12.201c.29-4.304 1.991-8.4 4.852-11.679A20.496 20.496 0 0 1 20 4.48a20.809 20.809 0 0 1 12.81 1.24"/><path d="M44.917 8 24.5 28.02l-6.125-6"/></svg><svg viewBox="0 0 503 306" id="firstline" xmlns="http://www.w3.org/2000/svg"><path d="M26.085 1c-102.668 77.555 127.872 188.174 364 163.5 126.584-13.227 134.104 60.207 78.5 140.5"/></svg><svg viewBox="0 0 30 28" id="heart" xmlns="http://www.w3.org/2000/svg"><path d="M26.787 4.147a7.333 7.333 0 0 0-10.374 0L15 5.56l-1.413-1.413A7.335 7.335 0 0 0 3.213 14.52l1.414 1.413L15 26.307l10.373-10.374 1.414-1.413a7.333 7.333 0 0 0 0-10.373Z"/></svg><svg viewBox="0 0 182 119" id="logo" xmlns="http://www.w3.org/2000/svg"><g filter="url(#fa)"><path d="M47.708 17.221c22.85 3.68 28.776 6.04 41.288 14.779-6.576 2.449-13.546 2.817-21 1.5 2.38 3.186 5.388 4.962 9.568 7.134-7.953 3.591-27.568 0-27.568 0S31.901 37.92 29.24 49.035c-2.66 11.115-.998 16.739 12.244 24.425-2.73-6.143-3.758-9.485-2.543-14.833 8.312.608 12.515 2.968 19.537 9.26-3.77-13.178-15.963-19.3-26.92-14.852-1.361.553-3.313 1.744-3.313 1.744-2.306-.557-3.614-1.021-6.042-2.854 0 0-3.814-3.044-6.133-7.957-4.565-9.667 1.069-18.042 12.225-23.51.666-4.811-1.779-9.83-6.246-15.323 10.975 2.634 16.466 5.561 25.659 12.086Z"/></g><g filter="url(#fb)"><path d="m78.381 45.516-.828 3.168a9.598 9.598 0 0 0-1.512-.432 19.892 19.892 0 0 0-1.8-.36 24.832 24.832 0 0 0-3.636-.288c-1.704 0-3.06.3-4.068.9-1.008.6-1.512 1.452-1.512 2.556 0 .552.12 1.044.36 1.476.264.408.66.792 1.188 1.152.552.36 1.272.72 2.16 1.08.888.336 1.956.696 3.204 1.08 1.344.408 2.496.852 3.456 1.332.96.48 1.752 1.008 2.376 1.584a4.96 4.96 0 0 1 1.368 1.944c.288.72.432 1.56.432 2.52 0 1.512-.396 2.796-1.188 3.852-.792 1.032-1.944 1.824-3.456 2.376-1.512.552-3.372.828-5.58.828-.72 0-1.488-.036-2.304-.108a46.41 46.41 0 0 1-2.484-.288 34.557 34.557 0 0 1-2.376-.504 22.798 22.798 0 0 1-2.016-.612l.864-3.132c.576.216 1.224.408 1.944.576.72.168 1.464.324 2.232.468.768.12 1.524.216 2.268.288.744.072 1.44.108 2.088.108 1.296 0 2.376-.132 3.24-.396.864-.288 1.524-.696 1.98-1.224.456-.528.684-1.164.684-1.908 0-.552-.156-1.044-.468-1.476-.312-.432-.78-.816-1.404-1.152-.6-.36-1.38-.72-2.34-1.08-.96-.36-2.088-.756-3.384-1.188-1.224-.408-2.28-.852-3.168-1.332-.864-.48-1.584-1.008-2.16-1.584a6.022 6.022 0 0 1-1.26-1.944c-.264-.72-.396-1.548-.396-2.484 0-1.008.204-1.932.612-2.772a6.18 6.18 0 0 1 1.8-2.232c.816-.624 1.836-1.104 3.06-1.44 1.224-.336 2.64-.504 4.248-.504.936 0 1.884.06 2.844.18.96.096 1.872.228 2.736.396.888.168 1.62.36 2.196.576Zm4.605 24.408v-25.2h3.996v12.204H98.97V44.724h3.996v25.2H98.97v-9.396H86.982v9.396h-3.996Zm22.735 0 8.424-25.416h4.68l8.496 25.416h-4.428l-1.908-5.94h-9.18l-1.908 5.94h-4.176Zm6.876-9.288h7.632l-3.816-12.564-3.816 12.564Zm37.515 9.648c-.648 0-1.296-.12-1.944-.36-.648-.216-1.308-.564-1.98-1.044a17.592 17.592 0 0 1-2.016-1.872 38.48 38.48 0 0 1-2.232-2.736 71.515 71.515 0 0 1-2.448-3.708 8.194 8.194 0 0 1-.864.036h-2.664c-.624 0-1.236-.012-1.836-.036v9.36h-4.068V44.688c1.176-.072 2.256-.132 3.24-.18.984-.048 1.896-.084 2.736-.108a90.807 90.807 0 0 1 2.52-.036c1.896 0 3.504.132 4.824.396 1.344.264 2.436.696 3.276 1.296.84.6 1.452 1.38 1.836 2.34.408.96.612 2.124.612 3.492 0 1.464-.228 2.712-.684 3.744a6.125 6.125 0 0 1-1.908 2.484c-.84.624-1.848 1.116-3.024 1.476a55.799 55.799 0 0 0 2.196 3.06c.696.84 1.332 1.536 1.908 2.088.576.528 1.104.936 1.584 1.224.504.264.972.396 1.404.396h.252a2.49 2.49 0 0 0 .288-.072l.036 3.888a8.05 8.05 0 0 1-.432.072 4.417 4.417 0 0 1-.612.036ZM138.52 57.252c1.08 0 2.016-.084 2.808-.252.816-.168 1.488-.432 2.016-.792a3.314 3.314 0 0 0 1.152-1.476c.264-.624.396-1.392.396-2.304 0-1.176-.192-2.112-.576-2.808-.36-.72-.996-1.236-1.908-1.548-.912-.312-2.16-.468-3.744-.468h-1.188c-.336 0-.672.012-1.008.036-.312.024-.66.048-1.044.072-.36 0-.792.024-1.296.072v9.36c.432.024.828.048 1.188.072.36 0 .72.012 1.08.036h2.124Zm20.558 12.672v-9.792l-8.82-15.3 4.428-.216 6.408 12.852 6.228-12.852 4.392.216-8.64 15.3v9.792h-3.996Z"/></g><path d="M59.856 26.257c-.495-.1-1.021.068-1.267-.255-.266-.352-.094-.846.426-1.107.7-.35 1.706.395 1.34.952-.125.19-.255.297-.5.41Zm0 0c.491-.187-.306-1.06-.69-.756-.138.109-.206.201-.216.34-.023.333.925.399 1.122.077m-2.63 1.513s-1.021-2.402 1.078-2.912c2.255-.548 2.508 2.018 2.508 2.018-1.606-.15-2.293.096-3.586.894Z"/><defs><filter id="fa" x=".98" y=".641" width="103.219" height="117.442" filterUnits="userSpaceOnUse" color-interpolation-filters="sRGB"><feFlood flood-opacity="0" result="BackgroundImageFix"/><feColorMatrix in="SourceAlpha" values="0 0 0 0 0 0 0 0 0 0 0 0 0 0 0 0 0 0 127 0" result="hardAlpha"/><feOffset/><feColorMatrix values="0 0 0 0 0 0 0 0 0 0 0 0 0 0 0 0 0 0 0.1 0"/><feBlend in2="BackgroundImageFix" result="effect1_dropShadow_448_1840"/><feColorMatrix in="SourceAlpha" values="0 0 0 0 0 0 0 0 0 0 0 0 0 0 0 0 0 0 127 0" result="hardAlpha"/><feOffset dy="2"/><feGaussianBlur stdDeviation="2"/><feColorMatrix values="0 0 0 0 0 0 0 0 0 0 0 0 0 0 0 0 0 0 0.1 0"/><feBlend in2="effect1_dropShadow_448_1840" result="effect2_dropShadow_448_1840"/><feColorMatrix in="SourceAlpha" values="0 0 0 0 0 0 0 0 0 0 0 0 0 0 0 0 0 0 127 0" result="hardAlpha"/><feOffset dy="7"/><feGaussianBlur stdDeviation="3.5"/><feColorMatrix values="0 0 0 0 0 0 0 0 0 0 0 0 0 0 0 0 0 0 0.09 0"/><feBlend in2="effect2_dropShadow_448_1840" result="effect3_dropShadow_448_1840"/><feColorMatrix in="SourceAlpha" values="0 0 0 0 0 0 0 0 0 0 0 0 0 0 0 0 0 0 127 0" result="hardAlpha"/><feOffset dy="16"/><feGaussianBlur stdDeviation="5"/><feColorMatrix values="0 0 0 0 0 0 0 0 0 0 0 0 0 0 0 0 0 0 0.05 0"/><feBlend in2="effect3_dropShadow_448_1840" result="effect4_dropShadow_448_1840"/><feColorMatrix in="SourceAlpha" values="0 0 0 0 0 0 0 0 0 0 0 0 0 0 0 0 0 0 127 0" result="hardAlpha"/><feOffset dy="29"/><feGaussianBlur stdDeviation="6"/><feColorMatrix values="0 0 0 0 0 0 0 0 0 0 0 0 0 0 0 0 0 0 0.01 0"/><feBlend in2="effect4_dropShadow_448_1840" result="effect5_dropShadow_448_1840"/><feBlend in="SourceGraphic" in2="effect5_dropShadow_448_1840" result="shape"/></filter><filter id="fb" x="59.165" y="41.364" width="122.549" height="31.92" filterUnits="userSpaceOnUse" color-interpolation-filters="sRGB"><feFlood flood-opacity="0" result="BackgroundImageFix"/><feColorMatrix in="SourceAlpha" values="0 0 0 0 0 0 0 0 0 0 0 0 0 0 0 0 0 0 127 0" result="hardAlpha"/><feOffset/><feColorMatrix values="0 0 0 0 0 0 0 0 0 0 0 0 0 0 0 0 0 0 0.1 0"/><feBlend in2="BackgroundImageFix" result="effect1_dropShadow_448_1840"/><feColorMatrix in="SourceAlpha" values="0 0 0 0 0 0 0 0 0 0 0 0 0 0 0 0 0 0 127 0" result="hardAlpha"/><feOffset/><feGaussianBlur stdDeviation=".5"/><feColorMatrix values="0 0 0 0 0 0 0 0 0 0 0 0 0 0 0 0 0 0 0.1 0"/><feBlend in2="effect1_dropShadow_448_1840" result="effect2_dropShadow_448_1840"/><feColorMatrix in="SourceAlpha" values="0 0 0 0 0 0 0 0 0 0 0 0 0 0 0 0 0 0 127 0" result="hardAlpha"/><feOffset dx="2"/><feGaussianBlur stdDeviation="1"/><feColorMatrix values="0 0 0 0 0 0 0 0 0 0 0 0 0 0 0 0 0 0 0.09 0"/><feBlend in2="effect2_dropShadow_448_1840" result="effect3_dropShadow_448_1840"/><feColorMatrix in="SourceAlpha" values="0 0 0 0 0 0 0 0 0 0 0 0 0 0 0 0 0 0 127 0" result="hardAlpha"/><feOffset dx="4"/><feGaussianBlur stdDeviation="1"/><feColorMatrix values="0 0 0 0 0 0 0 0 0 0 0 0 0 0 0 0 0 0 0.05 0"/><feBlend in2="effect3_dropShadow_448_1840" result="effect4_dropShadow_448_1840"/><feColorMatrix in="SourceAlpha" values="0 0 0 0 0 0 0 0 0 0 0 0 0 0 0 0 0 0 127 0" result="hardAlpha"/><feOffset dx="7"/><feGaussianBlur stdDeviation="1.5"/><feColorMatrix values="0 0 0 0 0 0 0 0 0 0 0 0 0 0 0 0 0 0 0.01 0"/><feBlend in2="effect4_dropShadow_448_1840" result="effect5_dropShadow_448_1840"/><feBlend in="SourceGraphic" in2="effect5_dropShadow_448_1840" result="shape"/></filter></defs></svg><svg viewBox="0 0 36 36" id="play" xmlns="http://www.w3.org/2000/svg"><circle cx="18" cy="18" r="14.75"/><path d="m16.27 23.847 7.409-5.247a.72.72 0 0 0 0-1.2l-7.41-5.247c-.523-.375-1.269-.015-1.269.6v10.495c0 .614.746.974 1.27.6Z"/></svg><svg viewBox="0 0 35 35" id="search" xmlns="http://www.w3.org/2000/svg"><path d="M16.042 27.708c6.443 0 11.666-5.223 11.666-11.666 0-6.444-5.223-11.667-11.666-11.667-6.444 0-11.667 5.223-11.667 11.667 0 6.443 5.223 11.666 11.667 11.666Zm14.583 2.917-6.344-6.344"/></svg><svg viewBox="0 0 541 320" id="secondline" xmlns="http://www.w3.org/2000/svg"><path d="M9.5 319.5c-64.75-135.897 272-64 387-97S562.384 117.86 530.5 1"/></svg><svg viewBox="0 0 20 19" id="star" xmlns="http://www.w3.org/2000/svg"><path d="m10.167 1 2.832 5.478 6.334.883-4.583 4.262 1.082 6.02-5.665-2.844-5.665 2.843 1.081-6.02L1 7.363l6.334-.885L10.167 1Z"/></svg><svg viewBox="0 0 32 35" id="user" xmlns="http://www.w3.org/2000/svg"><path d="M30.837 33.625v-3.476c0-1.843-.782-3.611-2.172-4.915-1.392-1.303-3.278-2.036-5.245-2.036H8.583c-1.967 0-3.853.733-5.244 2.036-1.392 1.304-2.173 3.072-2.173 4.915v3.476M23.419 8.326c0 3.84-3.32 6.951-7.417 6.951-4.097 0-7.418-3.112-7.418-6.95 0-3.84 3.321-6.952 7.418-6.952 4.097 0 7.417 3.112 7.417 6.951Z"/></svg></svg>